<?xml version="1.0" encoding="utf-8"?>
<!-- Generator: Adobe Illustrator 16.0.0, SVG Export Plug-In . SVG Version: 6.00 Build 0)  -->
<!DOCTYPE svg PUBLIC "-//W3C//DTD SVG 1.1 Basic//EN" "http://www.w3.org/Graphics/SVG/1.1/DTD/svg11-basic.dtd">
<svg version="1.1" baseProfile="basic" id="Layer_1"
	 xmlns="http://www.w3.org/2000/svg" xmlns:xlink="http://www.w3.org/1999/xlink" x="0px" y="0px" width="613.654px"
	 height="412.357px" viewBox="0 0 613.654 412.357" xml:space="preserve">
<polygon id="hex_000" fill="#F5F1EC" stroke="#CFCFC9" stroke-miterlimit="10" points="575.576,411.857 563.076,390.207 
	575.576,368.557 600.576,368.557 613.076,390.207 600.576,411.857 "/>
<polygon id="hex_001" fill="#F5F1EC" stroke="#CFCFC9" stroke-miterlimit="10" points="500.576,411.857 488.076,390.207 
	500.576,368.557 525.576,368.557 538.076,390.207 525.576,411.857 "/>
<polygon id="hex_002" fill="#F5F1EC" stroke="#CFCFC9" stroke-miterlimit="10" points="425.576,411.857 413.076,390.207 
	425.576,368.557 450.577,368.557 463.076,390.207 450.577,411.857 "/>
<polygon id="hex_003" fill="#F5F1EC" stroke="#CFCFC9" stroke-miterlimit="10" points="350.577,411.857 338.077,390.207 
	350.577,368.557 375.577,368.557 388.077,390.207 375.577,411.857 "/>
<polygon id="hex_004" fill="#F5F1EC" stroke="#CFCFC9" stroke-miterlimit="10" points="275.577,411.857 263.077,390.207 
	275.577,368.557 300.577,368.557 313.077,390.207 300.577,411.857 "/>
<polygon id="hex_005" fill="#F5F1EC" stroke="#CFCFC9" stroke-miterlimit="10" points="200.577,411.857 188.077,390.207 
	200.577,368.557 225.577,368.557 238.077,390.207 225.577,411.857 "/>
<polygon id="hex_006" fill="#F5F1EC" stroke="#CFCFC9" stroke-miterlimit="10" points="125.577,411.857 113.077,390.207 
	125.577,368.557 150.578,368.557 163.077,390.207 150.578,411.857 "/>
<polygon id="hex_007" fill="#F5F1EC" stroke="#CFCFC9" stroke-miterlimit="10" points="50.578,411.857 38.078,390.207 
	50.578,368.557 75.578,368.557 88.078,390.207 75.578,411.857 "/>
<polygon id="hex_008" fill="#F5F1EC" stroke="#CFCFC9" stroke-miterlimit="10" points="538.076,390.207 525.576,368.557 
	538.076,346.906 563.076,346.906 575.576,368.557 563.076,390.207 "/>
<polygon id="hex_009" fill="#F5F1EC" stroke="#CFCFC9" stroke-miterlimit="10" points="463.076,390.207 450.577,368.557 
	463.076,346.906 488.076,346.906 500.576,368.557 488.076,390.207 "/>
<polygon id="hex_010" fill="#F5F1EC" stroke="#CFCFC9" stroke-miterlimit="10" points="388.076,390.207 375.577,368.557 
	388.076,346.906 413.076,346.906 425.576,368.557 413.076,390.207 "/>
<polygon id="hex_011" fill="#F5F1EC" stroke="#CFCFC9" stroke-miterlimit="10" points="313.077,390.207 300.577,368.557 
	313.077,346.906 338.077,346.906 350.577,368.557 338.077,390.207 "/>
<polygon id="hex_012" fill="#F5F1EC" stroke="#CFCFC9" stroke-miterlimit="10" points="238.077,390.207 225.577,368.557 
	238.077,346.906 263.077,346.906 275.577,368.557 263.077,390.207 "/>
<polygon id="hex_013" fill="#F5F1EC" stroke="#CFCFC9" stroke-miterlimit="10" points="163.077,390.207 150.578,368.557 
	163.077,346.906 188.077,346.906 200.577,368.557 188.077,390.207 "/>
<polygon id="hex_014" fill="#F5F1EC" stroke="#CFCFC9" stroke-miterlimit="10" points="88.077,390.207 75.578,368.557 
	88.077,346.906 113.077,346.906 125.577,368.557 113.077,390.207 "/>
<polygon id="hex_015" fill="#F5F1EC" stroke="#CFCFC9" stroke-miterlimit="10" points="13.078,390.207 0.578,368.557 
	13.078,346.906 38.078,346.906 50.578,368.557 38.078,390.207 "/>
<polygon id="hex_016" fill="#F5F1EC" stroke="#CFCFC9" stroke-miterlimit="10" points="575.576,368.557 563.076,346.906 
	575.576,325.256 600.576,325.256 613.076,346.906 600.576,368.557 "/>
<polygon id="hex_017" fill="#F5F1EC" stroke="#CFCFC9" stroke-miterlimit="10" points="500.576,368.557 488.076,346.906 
	500.576,325.256 525.576,325.256 538.076,346.906 525.576,368.557 "/>
<polygon id="hex_018" fill="#F5F1EC" stroke="#CFCFC9" stroke-miterlimit="10" points="425.576,368.557 413.076,346.906 
	425.576,325.256 450.577,325.256 463.076,346.906 450.577,368.557 "/>
<polygon id="hex_019" fill="#F5F1EC" stroke="#CFCFC9" stroke-miterlimit="10" points="350.577,368.557 338.077,346.906 
	350.577,325.256 375.577,325.256 388.077,346.906 375.577,368.557 "/>
<polygon id="hex_020" fill="#F5F1EC" stroke="#CFCFC9" stroke-miterlimit="10" points="275.577,368.557 263.077,346.906 
	275.577,325.256 300.577,325.256 313.077,346.906 300.577,368.557 "/>
<polygon id="hex_021" fill="#F5F1EC" stroke="#CFCFC9" stroke-miterlimit="10" points="200.577,368.557 188.077,346.906 
	200.577,325.256 225.577,325.256 238.077,346.906 225.577,368.557 "/>
<polygon id="hex_022" fill="#F5F1EC" stroke="#CFCFC9" stroke-miterlimit="10" points="125.577,368.557 113.077,346.906 
	125.577,325.256 150.578,325.256 163.077,346.906 150.578,368.557 "/>
<polygon id="hex_023" fill="#F5F1EC" stroke="#CFCFC9" stroke-miterlimit="10" points="50.578,368.557 38.078,346.906 
	50.578,325.256 75.578,325.256 88.078,346.906 75.578,368.557 "/>
<polygon id="hex_024" fill="#F5F1EC" stroke="#CFCFC9" stroke-miterlimit="10" points="538.076,346.906 525.576,325.256 
	538.076,303.604 563.076,303.604 575.576,325.256 563.076,346.906 "/>
<polygon id="hex_025" fill="#F5F1EC" stroke="#CFCFC9" stroke-miterlimit="10" points="463.076,346.906 450.577,325.256 
	463.076,303.604 488.076,303.604 500.576,325.256 488.076,346.906 "/>
<polygon id="hex_026" fill="#F5F1EC" stroke="#CFCFC9" stroke-miterlimit="10" points="388.076,346.906 375.577,325.256 
	388.076,303.604 413.076,303.604 425.576,325.256 413.076,346.906 "/>
<polygon id="hex_027" fill="#F5F1EC" stroke="#CFCFC9" stroke-miterlimit="10" points="313.077,346.906 300.577,325.256 
	313.077,303.604 338.077,303.604 350.577,325.256 338.077,346.906 "/>
<polygon id="hex_028" fill="#F5F1EC" stroke="#CFCFC9" stroke-miterlimit="10" points="238.077,346.906 225.577,325.256 
	238.077,303.604 263.077,303.604 275.577,325.256 263.077,346.906 "/>
<polygon id="hex_029" fill="#F5F1EC" stroke="#CFCFC9" stroke-miterlimit="10" points="163.077,346.906 150.578,325.256 
	163.077,303.604 188.077,303.604 200.577,325.256 188.077,346.906 "/>
<polygon id="hex_030" fill="#F5F1EC" stroke="#CFCFC9" stroke-miterlimit="10" points="88.077,346.906 75.578,325.256 
	88.077,303.604 113.077,303.604 125.577,325.256 113.077,346.906 "/>
<polygon id="hex_031" fill="#F5F1EC" stroke="#CFCFC9" stroke-miterlimit="10" points="13.078,346.906 0.578,325.256 
	13.078,303.604 38.078,303.604 50.578,325.256 38.078,346.906 "/>
<polygon id="hex_032" fill="#F5F1EC" stroke="#CFCFC9" stroke-miterlimit="10" points="575.576,325.256 563.076,303.604 
	575.576,281.955 600.576,281.955 613.076,303.604 600.576,325.256 "/>
<polygon id="hex_033" fill="#F5F1EC" stroke="#CFCFC9" stroke-miterlimit="10" points="500.576,325.256 488.076,303.604 
	500.576,281.955 525.576,281.955 538.076,303.604 525.576,325.256 "/>
<polygon id="hex_034" fill="#F5F1EC" stroke="#CFCFC9" stroke-miterlimit="10" points="425.576,325.256 413.076,303.604 
	425.576,281.955 450.577,281.955 463.076,303.604 450.577,325.256 "/>
<polygon id="hex_035" fill="#F5F1EC" stroke="#CFCFC9" stroke-miterlimit="10" points="350.577,325.256 338.077,303.604 
	350.577,281.955 375.577,281.955 388.077,303.604 375.577,325.256 "/>
<polygon id="hex_036" fill="#F5F1EC" stroke="#CFCFC9" stroke-miterlimit="10" points="275.577,325.256 263.077,303.604 
	275.577,281.955 300.577,281.955 313.077,303.604 300.577,325.256 "/>
<polygon id="hex_037" fill="#F5F1EC" stroke="#CFCFC9" stroke-miterlimit="10" points="200.577,325.256 188.077,303.604 
	200.577,281.955 225.577,281.955 238.077,303.604 225.577,325.256 "/>
<polygon id="hex_038" fill="#F5F1EC" stroke="#CFCFC9" stroke-miterlimit="10" points="125.577,325.256 113.077,303.604 
	125.577,281.955 150.578,281.955 163.077,303.604 150.578,325.256 "/>
<polygon id="hex_039" fill="#F5F1EC" stroke="#CFCFC9" stroke-miterlimit="10" points="50.578,325.256 38.078,303.604 
	50.578,281.955 75.578,281.955 88.078,303.604 75.578,325.256 "/>
<polygon id="hex_040" fill="#F5F1EC" stroke="#CFCFC9" stroke-miterlimit="10" points="538.076,303.604 525.576,281.955 
	538.076,260.306 563.076,260.306 575.576,281.955 563.076,303.604 "/>
<polygon id="hex_041" fill="#F5F1EC" stroke="#CFCFC9" stroke-miterlimit="10" points="463.076,303.604 450.577,281.955 
	463.076,260.306 488.076,260.306 500.576,281.955 488.076,303.604 "/>
<polygon id="hex_042" fill="#F5F1EC" stroke="#CFCFC9" stroke-miterlimit="10" points="388.076,303.604 375.577,281.955 
	388.076,260.306 413.076,260.306 425.576,281.955 413.076,303.604 "/>
<polygon id="hex_043" fill="#F5F1EC" stroke="#CFCFC9" stroke-miterlimit="10" points="313.077,303.604 300.577,281.955 
	313.077,260.306 338.077,260.306 350.577,281.955 338.077,303.604 "/>
<polygon id="hex_044" fill="#F5F1EC" stroke="#CFCFC9" stroke-miterlimit="10" points="238.077,303.604 225.577,281.955 
	238.077,260.306 263.077,260.306 275.577,281.955 263.077,303.604 "/>
<polygon id="hex_045" fill="#F5F1EC" stroke="#CFCFC9" stroke-miterlimit="10" points="163.077,303.604 150.578,281.955 
	163.077,260.306 188.077,260.306 200.577,281.955 188.077,303.604 "/>
<polygon id="hex_046" fill="#F5F1EC" stroke="#CFCFC9" stroke-miterlimit="10" points="88.077,303.604 75.578,281.955 
	88.077,260.306 113.077,260.306 125.577,281.955 113.077,303.604 "/>
<polygon id="hex_047" fill="#F5F1EC" stroke="#CFCFC9" stroke-miterlimit="10" points="13.078,303.604 0.578,281.955 
	13.078,260.306 38.078,260.306 50.578,281.955 38.078,303.604 "/>
<polygon id="hex_048" fill="#F5F1EC" stroke="#CFCFC9" stroke-miterlimit="10" points="575.576,281.955 563.076,260.306 
	575.576,238.653 600.576,238.653 613.076,260.306 600.576,281.955 "/>
<polygon id="hex_049" fill="#F5F1EC" stroke="#CFCFC9" stroke-miterlimit="10" points="500.576,281.955 488.076,260.306 
	500.576,238.653 525.576,238.653 538.076,260.306 525.576,281.955 "/>
<polygon id="hex_050" fill="#F5F1EC" stroke="#CFCFC9" stroke-miterlimit="10" points="425.576,281.955 413.076,260.306 
	425.576,238.653 450.577,238.653 463.076,260.306 450.577,281.955 "/>
<polygon id="hex_051" fill="#F5F1EC" stroke="#CFCFC9" stroke-miterlimit="10" points="350.577,281.955 338.077,260.306 
	350.577,238.653 375.577,238.653 388.077,260.306 375.577,281.955 "/>
<polygon id="hex_052" fill="#F5F1EC" stroke="#CFCFC9" stroke-miterlimit="10" points="275.577,281.955 263.077,260.306 
	275.577,238.653 300.577,238.653 313.077,260.306 300.577,281.955 "/>
<polygon id="hex_053" fill="#F5F1EC" stroke="#CFCFC9" stroke-miterlimit="10" points="200.577,281.955 188.077,260.306 
	200.577,238.653 225.577,238.653 238.077,260.306 225.577,281.955 "/>
<polygon id="hex_054" fill="#F5F1EC" stroke="#CFCFC9" stroke-miterlimit="10" points="125.577,281.955 113.077,260.306 
	125.577,238.653 150.578,238.653 163.077,260.306 150.578,281.955 "/>
<polygon id="hex_055" fill="#F5F1EC" stroke="#CFCFC9" stroke-miterlimit="10" points="50.578,281.955 38.078,260.306 
	50.578,238.653 75.578,238.653 88.078,260.306 75.578,281.955 "/>
<polygon id="hex_056" fill="#F5F1EC" stroke="#CFCFC9" stroke-miterlimit="10" points="538.076,260.306 525.576,238.653 
	538.076,217.004 563.076,217.004 575.576,238.653 563.076,260.306 "/>
<polygon id="hex_057" fill="#F5F1EC" stroke="#CFCFC9" stroke-miterlimit="10" points="463.076,260.306 450.577,238.653 
	463.076,217.004 488.076,217.004 500.576,238.653 488.076,260.306 "/>
<polygon id="hex_058" fill="#F5F1EC" stroke="#CFCFC9" stroke-miterlimit="10" points="388.076,260.306 375.577,238.653 
	388.076,217.004 413.076,217.004 425.576,238.653 413.076,260.306 "/>
<polygon id="hex_059" fill="#F5F1EC" stroke="#CFCFC9" stroke-miterlimit="10" points="313.077,260.306 300.577,238.653 
	313.077,217.004 338.077,217.004 350.577,238.653 338.077,260.306 "/>
<polygon id="hex_060" fill="#F5F1EC" stroke="#CFCFC9" stroke-miterlimit="10" points="238.077,260.306 225.577,238.653 
	238.077,217.004 263.077,217.004 275.577,238.653 263.077,260.306 "/>
<polygon id="hex_061" fill="#F5F1EC" stroke="#CFCFC9" stroke-miterlimit="10" points="163.077,260.306 150.578,238.653 
	163.077,217.004 188.077,217.004 200.577,238.653 188.077,260.306 "/>
<polygon id="hex_062" fill="#F5F1EC" stroke="#CFCFC9" stroke-miterlimit="10" points="88.077,260.306 75.578,238.653 
	88.077,217.004 113.077,217.004 125.577,238.653 113.077,260.306 "/>
<polygon id="hex_063" fill="#F5F1EC" stroke="#CFCFC9" stroke-miterlimit="10" points="13.078,260.306 0.578,238.653 
	13.078,217.004 38.078,217.004 50.578,238.653 38.078,260.306 "/>
<polygon id="hex_064" fill="#F5F1EC" stroke="#CFCFC9" stroke-miterlimit="10" points="575.576,238.653 563.076,217.004 
	575.576,195.354 600.576,195.354 613.076,217.004 600.576,238.653 "/>
<polygon id="hex_065" fill="#F5F1EC" stroke="#CFCFC9" stroke-miterlimit="10" points="500.576,238.653 488.076,217.004 
	500.576,195.354 525.576,195.354 538.076,217.004 525.576,238.653 "/>
<polygon id="hex_066" fill="#F5F1EC" stroke="#CFCFC9" stroke-miterlimit="10" points="425.576,238.653 413.076,217.004 
	425.576,195.354 450.577,195.354 463.076,217.004 450.577,238.653 "/>
<polygon id="hex_067" fill="#F5F1EC" stroke="#CFCFC9" stroke-miterlimit="10" points="350.577,238.653 338.077,217.004 
	350.577,195.354 375.577,195.354 388.077,217.004 375.577,238.653 "/>
<polygon id="hex_078" fill="#F5F1EC" stroke="#CFCFC9" stroke-miterlimit="10" points="275.577,238.653 263.077,217.004 
	275.577,195.354 300.577,195.354 313.077,217.004 300.577,238.653 "/>
<polygon id="hex_079" fill="#F5F1EC" stroke="#CFCFC9" stroke-miterlimit="10" points="200.577,238.653 188.077,217.004 
	200.577,195.354 225.577,195.354 238.077,217.004 225.577,238.653 "/>
<polygon id="hex_070" fill="#F5F1EC" stroke="#CFCFC9" stroke-miterlimit="10" points="125.577,238.653 113.077,217.004 
	125.577,195.354 150.578,195.354 163.077,217.004 150.578,238.653 "/>
<polygon id="hex_071" fill="#F5F1EC" stroke="#CFCFC9" stroke-miterlimit="10" points="50.578,238.653 38.078,217.004 
	50.578,195.354 75.578,195.354 88.078,217.004 75.578,238.653 "/>
<polygon id="hex_072" fill="#F5F1EC" stroke="#CFCFC9" stroke-miterlimit="10" points="538.076,217.004 525.576,195.354 
	538.076,173.703 563.076,173.703 575.576,195.354 563.076,217.004 "/>
<polygon id="hex_073" fill="#F5F1EC" stroke="#CFCFC9" stroke-miterlimit="10" points="463.076,217.004 450.577,195.354 
	463.076,173.703 488.076,173.703 500.576,195.354 488.076,217.004 "/>
<polygon id="hex_074" fill="#F5F1EC" stroke="#CFCFC9" stroke-miterlimit="10" points="388.076,217.004 375.577,195.354 
	388.076,173.703 413.076,173.703 425.576,195.354 413.076,217.004 "/>
<polygon id="hex_075" fill="#F5F1EC" stroke="#CFCFC9" stroke-miterlimit="10" points="313.077,217.004 300.577,195.354 
	313.077,173.703 338.077,173.703 350.577,195.354 338.077,217.004 "/>
<polygon id="hex_076" fill="#F5F1EC" stroke="#CFCFC9" stroke-miterlimit="10" points="238.077,217.004 225.577,195.354 
	238.077,173.703 263.077,173.703 275.577,195.354 263.077,217.004 "/>
<polygon id="hex_077" fill="#F5F1EC" stroke="#CFCFC9" stroke-miterlimit="10" points="163.077,217.004 150.578,195.354 
	163.077,173.703 188.077,173.703 200.577,195.354 188.077,217.004 "/>
<polygon id="hex_088" fill="#F5F1EC" stroke="#CFCFC9" stroke-miterlimit="10" points="88.077,217.004 75.578,195.354 
	88.077,173.703 113.077,173.703 125.577,195.354 113.077,217.004 "/>
<polygon id="hex_089" fill="#F5F1EC" stroke="#CFCFC9" stroke-miterlimit="10" points="13.078,217.004 0.578,195.354 
	13.078,173.703 38.078,173.703 50.578,195.354 38.078,217.004 "/>
<polygon id="hex_080" fill="#F5F1EC" stroke="#CFCFC9" stroke-miterlimit="10" points="575.576,195.354 563.076,173.703 
	575.576,152.053 600.576,152.053 613.076,173.703 600.576,195.354 "/>
<polygon id="hex_081" fill="#F5F1EC" stroke="#CFCFC9" stroke-miterlimit="10" points="500.576,195.354 488.076,173.703 
	500.576,152.053 525.576,152.053 538.076,173.703 525.576,195.354 "/>
<polygon id="hex_082" fill="#F5F1EC" stroke="#CFCFC9" stroke-miterlimit="10" points="425.576,195.354 413.076,173.703 
	425.576,152.053 450.577,152.053 463.076,173.703 450.577,195.354 "/>
<polygon id="hex_083" fill="#F5F1EC" stroke="#CFCFC9" stroke-miterlimit="10" points="350.577,195.354 338.077,173.703 
	350.577,152.053 375.577,152.053 388.077,173.703 375.577,195.354 "/>
<polygon id="hex_084" fill="#F5F1EC" stroke="#CFCFC9" stroke-miterlimit="10" points="275.577,195.354 263.077,173.703 
	275.577,152.053 300.577,152.053 313.077,173.703 300.577,195.354 "/>
<polygon id="hex_085" fill="#F5F1EC" stroke="#CFCFC9" stroke-miterlimit="10" points="200.577,195.354 188.077,173.703 
	200.577,152.053 225.577,152.053 238.077,173.703 225.577,195.354 "/>
<polygon id="hex_086" fill="#F5F1EC" stroke="#CFCFC9" stroke-miterlimit="10" points="125.577,195.354 113.077,173.703 
	125.577,152.053 150.578,152.053 163.077,173.703 150.578,195.354 "/>
<polygon id="hex_087" fill="#F5F1EC" stroke="#CFCFC9" stroke-miterlimit="10" points="50.578,195.354 38.078,173.703 
	50.578,152.053 75.578,152.053 88.078,173.703 75.578,195.354 "/>
<polygon id="hex_088_1_" fill="#F5F1EC" stroke="#CFCFC9" stroke-miterlimit="10" points="538.076,173.703 525.576,152.053 
	538.076,130.402 563.076,130.402 575.576,152.053 563.076,173.703 "/>
<polygon id="hex_089_1_" fill="#F5F1EC" stroke="#CFCFC9" stroke-miterlimit="10" points="463.076,173.703 450.577,152.053 
	463.076,130.402 488.076,130.402 500.576,152.053 488.076,173.703 "/>
<polygon id="hex_090" fill="#F5F1EC" stroke="#CFCFC9" stroke-miterlimit="10" points="388.076,173.703 375.577,152.053 
	388.076,130.402 413.076,130.402 425.576,152.053 413.076,173.703 "/>
<polygon id="hex_091" fill="#F5F1EC" stroke="#CFCFC9" stroke-miterlimit="10" points="313.077,173.703 300.577,152.053 
	313.077,130.402 338.077,130.402 350.577,152.053 338.077,173.703 "/>
<polygon id="hex_092" fill="#F5F1EC" stroke="#CFCFC9" stroke-miterlimit="10" points="238.077,173.703 225.577,152.053 
	238.077,130.402 263.077,130.402 275.577,152.053 263.077,173.703 "/>
<polygon id="hex_093" fill="#F5F1EC" stroke="#CFCFC9" stroke-miterlimit="10" points="163.077,173.703 150.578,152.053 
	163.077,130.402 188.077,130.402 200.577,152.053 188.077,173.703 "/>
<polygon id="hex_094" fill="#F5F1EC" stroke="#CFCFC9" stroke-miterlimit="10" points="88.077,173.703 75.578,152.053 
	88.077,130.402 113.077,130.402 125.577,152.053 113.077,173.703 "/>
<polygon id="hex_095" fill="#F5F1EC" stroke="#CFCFC9" stroke-miterlimit="10" points="13.078,173.703 0.578,152.053 
	13.078,130.402 38.078,130.402 50.578,152.053 38.078,173.703 "/>
<polygon id="hex_096" fill="#F5F1EC" stroke="#CFCFC9" stroke-miterlimit="10" points="575.576,152.053 563.076,130.402 
	575.576,108.752 600.576,108.752 613.076,130.402 600.576,152.053 "/>
<polygon id="hex_097" fill="#F5F1EC" stroke="#CFCFC9" stroke-miterlimit="10" points="500.576,152.053 488.076,130.402 
	500.576,108.752 525.576,108.752 538.076,130.402 525.576,152.053 "/>
<polygon id="hex_098" fill="#F5F1EC" stroke="#CFCFC9" stroke-miterlimit="10" points="425.576,152.053 413.076,130.402 
	425.576,108.752 450.577,108.752 463.076,130.402 450.577,152.053 "/>
<polygon id="hex_099" fill="#F5F1EC" stroke="#CFCFC9" stroke-miterlimit="10" points="350.577,152.053 338.077,130.402 
	350.577,108.752 375.577,108.752 388.077,130.402 375.577,152.053 "/>
<polygon id="hex_100" fill="#F5F1EC" stroke="#CFCFC9" stroke-miterlimit="10" points="275.577,152.053 263.077,130.402 
	275.577,108.752 300.577,108.752 313.077,130.402 300.577,152.053 "/>
<polygon id="hex_101" fill="#F5F1EC" stroke="#CFCFC9" stroke-miterlimit="10" points="200.577,152.053 188.077,130.402 
	200.577,108.752 225.577,108.752 238.077,130.402 225.577,152.053 "/>
<polygon id="hex_102" fill="#F5F1EC" stroke="#CFCFC9" stroke-miterlimit="10" points="125.577,152.053 113.077,130.402 
	125.577,108.752 150.578,108.752 163.077,130.402 150.578,152.053 "/>
<polygon id="hex_103" fill="#F5F1EC" stroke="#CFCFC9" stroke-miterlimit="10" points="50.578,152.053 38.078,130.402 
	50.578,108.752 75.578,108.752 88.078,130.402 75.578,152.053 "/>
<polygon id="hex_104" fill="#F5F1EC" stroke="#CFCFC9" stroke-miterlimit="10" points="538.076,130.402 525.576,108.752 
	538.076,87.102 563.076,87.102 575.576,108.752 563.076,130.402 "/>
<polygon id="hex_105" fill="#F5F1EC" stroke="#CFCFC9" stroke-miterlimit="10" points="463.076,130.402 450.577,108.752 
	463.076,87.102 488.076,87.102 500.576,108.752 488.076,130.402 "/>
<polygon id="hex_106" fill="#F5F1EC" stroke="#CFCFC9" stroke-miterlimit="10" points="388.076,130.402 375.577,108.752 
	388.076,87.102 413.076,87.102 425.576,108.752 413.076,130.402 "/>
<polygon id="hex_107" fill="#F5F1EC" stroke="#CFCFC9" stroke-miterlimit="10" points="313.077,130.402 300.577,108.752 
	313.077,87.102 338.077,87.102 350.577,108.752 338.077,130.402 "/>
<polygon id="hex_108" fill="#F5F1EC" stroke="#CFCFC9" stroke-miterlimit="10" points="238.077,130.402 225.577,108.752 
	238.077,87.102 263.077,87.102 275.577,108.752 263.077,130.402 "/>
<polygon id="hex_109" fill="#F5F1EC" stroke="#CFCFC9" stroke-miterlimit="10" points="163.077,130.402 150.578,108.752 
	163.077,87.102 188.077,87.102 200.577,108.752 188.077,130.402 "/>
<polygon id="hex_110" fill="#F5F1EC" stroke="#CFCFC9" stroke-miterlimit="10" points="88.077,130.402 75.578,108.752 
	88.077,87.102 113.077,87.102 125.577,108.752 113.077,130.402 "/>
<polygon id="hex_111" fill="#F5F1EC" stroke="#CFCFC9" stroke-miterlimit="10" points="13.078,130.402 0.578,108.752 13.078,87.102 
	38.078,87.102 50.578,108.752 38.078,130.402 "/>
<polygon id="hex_112" fill="#F5F1EC" stroke="#CFCFC9" stroke-miterlimit="10" points="575.576,108.752 563.076,87.102 
	575.576,65.451 600.576,65.451 613.076,87.102 600.576,108.752 "/>
<polygon id="hex_113" fill="#F5F1EC" stroke="#CFCFC9" stroke-miterlimit="10" points="500.576,108.752 488.076,87.102 
	500.576,65.451 525.576,65.451 538.076,87.102 525.576,108.752 "/>
<polygon id="hex_114" fill="#F5F1EC" stroke="#CFCFC9" stroke-miterlimit="10" points="425.576,108.752 413.076,87.102 
	425.576,65.451 450.577,65.451 463.076,87.102 450.577,108.752 "/>
<polygon id="hex_115" fill="#F5F1EC" stroke="#CFCFC9" stroke-miterlimit="10" points="350.577,108.752 338.077,87.102 
	350.577,65.451 375.577,65.451 388.077,87.102 375.577,108.752 "/>
<polygon id="hex_116" fill="#F5F1EC" stroke="#CFCFC9" stroke-miterlimit="10" points="275.577,108.752 263.077,87.102 
	275.577,65.451 300.577,65.451 313.077,87.102 300.577,108.752 "/>
<polygon id="hex_117" fill="#F5F1EC" stroke="#CFCFC9" stroke-miterlimit="10" points="200.577,108.752 188.077,87.102 
	200.577,65.451 225.577,65.451 238.077,87.102 225.577,108.752 "/>
<polygon id="hex_118" fill="#F5F1EC" stroke="#CFCFC9" stroke-miterlimit="10" points="125.577,108.752 113.077,87.102 
	125.577,65.451 150.578,65.451 163.077,87.102 150.578,108.752 "/>
<polygon id="hex_119" fill="#F5F1EC" stroke="#CFCFC9" stroke-miterlimit="10" points="50.578,108.752 38.078,87.102 50.578,65.451 
	75.578,65.451 88.078,87.102 75.578,108.752 "/>
<polygon id="hex_120" fill="#F5F1EC" stroke="#CFCFC9" stroke-miterlimit="10" points="538.076,87.102 525.576,65.451 
	538.076,43.801 563.076,43.801 575.576,65.451 563.076,87.102 "/>
<polygon id="hex_121" fill="#F5F1EC" stroke="#CFCFC9" stroke-miterlimit="10" points="463.076,87.102 450.577,65.451 
	463.076,43.801 488.076,43.801 500.576,65.451 488.076,87.102 "/>
<polygon id="hex_122" fill="#F5F1EC" stroke="#CFCFC9" stroke-miterlimit="10" points="388.076,87.102 375.577,65.451 
	388.076,43.801 413.076,43.801 425.576,65.451 413.076,87.102 "/>
<polygon id="hex_123" fill="#F5F1EC" stroke="#CFCFC9" stroke-miterlimit="10" points="313.077,87.102 300.577,65.451 
	313.077,43.801 338.077,43.801 350.577,65.451 338.077,87.102 "/>
<polygon id="hex_124" fill="#F5F1EC" stroke="#CFCFC9" stroke-miterlimit="10" points="238.077,87.102 225.577,65.451 
	238.077,43.801 263.077,43.801 275.577,65.451 263.077,87.102 "/>
<polygon id="hex_125" fill="#F5F1EC" stroke="#CFCFC9" stroke-miterlimit="10" points="163.077,87.102 150.578,65.451 
	163.077,43.801 188.077,43.801 200.577,65.451 188.077,87.102 "/>
<polygon id="hex_126" fill="#F5F1EC" stroke="#CFCFC9" stroke-miterlimit="10" points="88.077,87.102 75.578,65.451 88.077,43.801 
	113.077,43.801 125.577,65.451 113.077,87.102 "/>
<polygon id="hex_127" fill="#F5F1EC" stroke="#CFCFC9" stroke-miterlimit="10" points="13.078,87.102 0.578,65.451 13.078,43.801 
	38.078,43.801 50.578,65.451 38.078,87.102 "/>
<polygon id="hex_128" fill="#F5F1EC" stroke="#CFCFC9" stroke-miterlimit="10" points="575.576,65.451 563.076,43.801 
	575.576,22.15 600.576,22.15 613.076,43.801 600.576,65.451 "/>
<polygon id="hex_129" fill="#F5F1EC" stroke="#CFCFC9" stroke-miterlimit="10" points="500.576,65.451 488.076,43.801 
	500.576,22.15 525.576,22.15 538.076,43.801 525.576,65.451 "/>
<polygon id="hex_130" fill="#F5F1EC" stroke="#CFCFC9" stroke-miterlimit="10" points="425.576,65.451 413.076,43.801 
	425.576,22.15 450.577,22.15 463.076,43.801 450.577,65.451 "/>
<polygon id="hex_131" fill="#F5F1EC" stroke="#CFCFC9" stroke-miterlimit="10" points="350.577,65.451 338.077,43.801 
	350.577,22.15 375.577,22.15 388.077,43.801 375.577,65.451 "/>
<polygon id="hex_132" fill="#F5F1EC" stroke="#CFCFC9" stroke-miterlimit="10" points="275.577,65.451 263.077,43.801 
	275.577,22.15 300.577,22.15 313.077,43.801 300.577,65.451 "/>
<polygon id="hex_133" fill="#F5F1EC" stroke="#CFCFC9" stroke-miterlimit="10" points="200.577,65.451 188.077,43.801 
	200.577,22.15 225.577,22.15 238.077,43.801 225.577,65.451 "/>
<polygon id="hex_134" fill="#F5F1EC" stroke="#CFCFC9" stroke-miterlimit="10" points="125.577,65.451 113.077,43.801 
	125.577,22.15 150.578,22.15 163.077,43.801 150.578,65.451 "/>
<polygon id="hex_135" fill="#F5F1EC" stroke="#CFCFC9" stroke-miterlimit="10" points="50.578,65.451 38.078,43.801 50.578,22.15 
	75.578,22.15 88.078,43.801 75.578,65.451 "/>
<polygon id="hex_136" fill="#F5F1EC" stroke="#CFCFC9" stroke-miterlimit="10" points="538.076,43.801 525.576,22.15 538.076,0.5 
	563.076,0.5 575.576,22.15 563.076,43.801 "/>
<polygon id="hex_137" fill="#F5F1EC" stroke="#CFCFC9" stroke-miterlimit="10" points="463.076,43.801 450.577,22.15 463.076,0.5 
	488.076,0.5 500.576,22.15 488.076,43.801 "/>
<polygon id="hex_138" fill="#F5F1EC" stroke="#CFCFC9" stroke-miterlimit="10" points="388.076,43.801 375.577,22.15 388.076,0.5 
	413.076,0.5 425.576,22.15 413.076,43.801 "/>
<polygon id="hex_139" fill="#F5F1EC" stroke="#CFCFC9" stroke-miterlimit="10" points="313.077,43.801 300.577,22.15 313.077,0.5 
	338.077,0.5 350.577,22.15 338.077,43.801 "/>
<polygon id="hex_140" fill="#F5F1EC" stroke="#CFCFC9" stroke-miterlimit="10" points="238.077,43.801 225.577,22.15 238.077,0.5 
	263.077,0.5 275.577,22.15 263.077,43.801 "/>
<polygon id="hex_141" fill="#F5F1EC" stroke="#CFCFC9" stroke-miterlimit="10" points="163.077,43.801 150.578,22.15 163.077,0.5 
	188.077,0.5 200.577,22.15 188.077,43.801 "/>
<polygon id="hex_142" fill="#F5F1EC" stroke="#CFCFC9" stroke-miterlimit="10" points="88.077,43.801 75.578,22.15 88.077,0.5 
	113.077,0.5 125.577,22.15 113.077,43.801 "/>
<polygon id="hex_143" fill="#F5F1EC" stroke="#CFCFC9" stroke-miterlimit="10" points="13.078,43.801 0.578,22.15 13.078,0.5 
	38.078,0.5 50.578,22.15 38.078,43.801 "/>
</svg>
