<?xml version="1.0" encoding="utf-8"?>
<!-- Generator: Adobe Illustrator 16.0.0, SVG Export Plug-In . SVG Version: 6.00 Build 0)  -->
<!DOCTYPE svg PUBLIC "-//W3C//DTD SVG 1.1 Basic//EN" "http://www.w3.org/Graphics/SVG/1.1/DTD/svg11-basic.dtd">
<svg version="1.1" baseProfile="basic" id="art" xmlns="http://www.w3.org/2000/svg" xmlns:xlink="http://www.w3.org/1999/xlink"
	 x="0px" y="0px" width="156px" height="156px" viewBox="0.602 0.521 156 135.099" xml:space="preserve">
<g>
	<polygon fill="#F05A28" stroke="#FFFFFF" stroke-width="3" stroke-miterlimit="10" points="48.59,68.071 63.596,68.071 
		78.602,68.071 78.602,68.071 71.099,55.076 63.596,42.081 48.59,42.081 41.087,55.076 	"/>
	<polygon fill="#FAAF40" stroke="#FFFFFF" stroke-width="3" stroke-miterlimit="10" points="71.099,107.058 86.105,107.058 
		93.607,94.062 86.105,81.066 78.602,68.071 71.099,81.066 71.099,81.066 63.596,94.062 	"/>
	<polygon fill="#FAAF40" stroke="#FFFFFF" stroke-width="3" stroke-miterlimit="10" points="93.607,68.071 108.613,68.071 
		116.117,55.076 108.613,42.081 93.607,42.081 86.105,55.076 78.602,68.071 	"/>
	<polygon fill="#F05A28" stroke="#FFFFFF" stroke-width="3" stroke-miterlimit="10" points="153.602,68.071 131.139,55.102 
		131.123,55.076 116.117,55.076 108.613,68.071 116.117,81.066 131.123,81.066 131.139,81.041 	"/>
	<polygon fill="#FAAF40" stroke="#FFFFFF" stroke-width="3" stroke-miterlimit="10" points="41.103,133.021 63.565,120.054 
		63.596,120.054 71.099,107.058 63.596,94.063 48.59,94.063 41.087,107.058 41.102,107.084 	"/>
	<polygon fill="#BE1E2D" stroke="#FFFFFF" stroke-width="3" stroke-miterlimit="10" points="3.602,68.071 26.065,81.041 
		26.081,81.066 41.087,81.066 48.59,68.071 41.087,55.076 26.081,55.076 26.065,55.102 	"/>
	<polygon fill="#BE1E2D" stroke="#FFFFFF" stroke-width="3" stroke-miterlimit="10" points="41.103,3.119 41.103,29.059 
		41.087,29.085 48.59,42.081 63.596,42.081 71.099,29.084 63.596,16.089 63.566,16.089 	"/>
	<polygon fill="#F05A28" stroke="#FFFFFF" stroke-width="3" stroke-miterlimit="10" points="116.102,133.023 116.102,107.084 
		116.117,107.058 108.613,94.062 93.607,94.062 86.105,107.058 93.607,120.054 93.639,120.054 	"/>
	<polygon fill="#EE4036" stroke="#FFFFFF" stroke-width="3" stroke-miterlimit="10" points="26.081,107.058 18.578,94.062 
		26.081,81.066 41.087,81.066 48.59,94.062 41.087,107.058 	"/>
	<polygon fill="#F16522" stroke="#FFFFFF" stroke-width="3" stroke-miterlimit="10" points="116.117,55.076 108.613,42.081 
		116.117,29.085 131.123,29.085 138.626,42.081 131.123,55.076 	"/>
	<polygon fill="#EE4036" stroke="#FFFFFF" stroke-width="3" stroke-miterlimit="10" points="26.081,55.076 18.578,42.081 
		26.081,29.085 41.087,29.085 48.59,42.081 41.087,55.076 	"/>
	<polygon fill="#EE4036" stroke="#FFFFFF" stroke-width="3" stroke-miterlimit="10" points="116.117,107.058 108.613,94.062 
		116.117,81.066 131.123,81.066 138.626,94.062 131.123,107.058 	"/>
	<polygon fill="#EE4036" stroke="#FFFFFF" stroke-width="3" stroke-miterlimit="10" points="71.099,133.048 63.596,120.052 
		71.099,107.058 86.105,107.058 93.607,120.052 86.105,133.048 	"/>
	<polygon fill="#FAAF40" stroke="#FFFFFF" stroke-width="3" stroke-miterlimit="10" points="71.099,29.11 63.596,16.115 
		71.099,3.119 86.105,3.119 93.607,16.115 86.105,29.11 	"/>
	<polygon fill="#EE4036" stroke="#FFFFFF" stroke-width="3" stroke-miterlimit="10" points="116.102,3.119 93.639,16.089 
		93.607,16.089 86.105,29.084 93.607,42.081 108.613,42.081 116.117,29.084 116.102,29.059 	"/>
</g>
</svg>
